<svg width="939" height="587" viewBox="0 0 939 587" fill="none" xmlns="http://www.w3.org/2000/svg">
<path d="M401.299 372.679L399.657 381.291L397.908 390.546L381.846 474.943H355.593L371.637 390.546L373.404 381.291L375.046 372.679H401.299Z" fill="#EBEBEB"/>
<path d="M397.497 372.679C396.105 381.23 394.624 389.766 393.124 398.287L388.484 423.879L383.63 449.426L381.131 462.184L378.525 474.943L380.667 462.123L382.898 449.319L387.592 423.742L392.446 398.195C394.035 389.674 395.712 381.169 397.497 372.679Z" fill="#C7C7C7"/>
<path d="M399.658 381.291L397.909 390.546H371.638L373.405 381.291H399.658Z" fill="#C7C7C7"/>
<path d="M530.94 372.679L532.582 381.291L534.331 390.546L550.394 474.943H576.647L560.602 390.546L558.835 381.291L557.194 372.679H530.94Z" fill="#EBEBEB"/>
<path d="M534.831 372.679C536.205 381.23 537.704 389.766 539.204 398.287L543.826 423.879L548.68 449.426L551.197 462.184L553.803 474.943L551.661 462.123L549.43 449.319L544.79 423.742L539.935 398.195C538.276 389.674 536.598 381.169 534.831 372.679Z" fill="#C7C7C7"/>
<path d="M532.583 381.291H558.836L560.603 390.546H534.332L532.583 381.291Z" fill="#C7C7C7"/>
<path d="M400.335 348.937H379.525L382.113 332.293H397.747L400.335 348.937Z" fill="#C7C7C7"/>
<path d="M409.048 323.324C410.91 314.281 403.867 305.655 393.315 304.059C382.764 302.462 372.701 308.5 370.839 317.544C368.977 326.587 376.02 335.213 386.571 336.809C397.122 338.406 407.186 332.368 409.048 323.324Z" fill="#DBDBDB"/>
<path d="M404.293 323.328C406.172 316.529 401.266 309.712 393.334 308.101C385.402 306.49 377.448 310.695 375.569 317.494C373.69 324.293 378.596 331.11 386.528 332.721C394.46 334.332 402.413 330.126 404.293 323.328Z" fill="white"/>
<path d="M402.262 319.673C402.125 318.165 401.626 316.698 400.797 315.364C399.968 314.029 398.826 312.856 397.444 311.917C396.051 310.99 394.454 310.316 392.748 309.934C391.042 309.553 389.264 309.473 387.521 309.699C385.79 309.932 384.137 310.475 382.667 311.292C381.197 312.109 379.944 313.182 378.99 314.441C377.982 315.787 377.322 317.303 377.054 318.886C376.787 320.469 376.917 322.083 377.437 323.619C378.323 326.274 380.395 328.522 383.202 329.876C385.94 331.209 389.153 331.633 392.232 331.069C395.211 330.523 397.881 329.12 399.799 327.092C401.694 325.088 402.789 322.616 402.923 320.04C402.923 319.933 402.923 319.826 402.798 319.826C402.673 319.826 402.673 319.917 402.673 320.04C402.605 321.082 402.371 322.111 401.977 323.099C401.566 324.069 401.02 324.994 400.353 325.853C399.649 326.686 398.834 327.445 397.925 328.117C396.991 328.786 395.967 329.356 394.874 329.815C393.303 330.449 391.594 330.796 389.858 330.833C388.122 330.87 386.396 330.596 384.79 330.029C383.179 329.444 381.736 328.567 380.559 327.458C379.382 326.348 378.499 325.034 377.972 323.604C377.431 322.135 377.265 320.584 377.487 319.055C377.709 317.527 378.313 316.057 379.257 314.747C380.17 313.504 381.383 312.443 382.815 311.635C384.246 310.828 385.863 310.293 387.556 310.066C389.844 309.754 392.187 309.978 394.339 310.713C396.491 311.448 398.371 312.667 399.782 314.242C400.46 315.054 401.012 315.938 401.424 316.873C401.821 317.822 402.085 318.808 402.209 319.81C402.209 319.81 402.262 319.719 402.262 319.673Z" fill="#EBEBEB"/>
<path d="M400.532 319.688C400.405 318.397 399.968 317.143 399.249 316.003C398.531 314.863 397.546 313.863 396.356 313.064C395.162 312.278 393.798 311.702 392.343 311.371C390.887 311.04 389.37 310.961 387.878 311.137C386.387 311.327 384.96 311.785 383.69 312.481C382.42 313.177 381.335 314.095 380.508 315.175C379.627 316.328 379.044 317.628 378.798 318.99C378.552 320.351 378.648 321.742 379.08 323.069C379.448 324.218 380.08 325.292 380.938 326.23C381.796 327.167 382.863 327.949 384.077 328.53C386.461 329.698 389.269 330.059 391.948 329.539C394.532 329.062 396.845 327.836 398.498 326.067C400.134 324.326 401.079 322.182 401.192 319.948C401.192 319.856 401.192 319.764 401.085 319.764C400.978 319.764 400.943 319.841 400.943 319.948C400.797 321.741 400.094 323.468 398.908 324.95C397.722 326.432 396.095 327.615 394.196 328.377C392.846 328.94 391.37 329.251 389.869 329.288C388.367 329.325 386.873 329.087 385.487 328.591C384.092 328.085 382.843 327.325 381.826 326.364C380.809 325.402 380.048 324.262 379.597 323.023C379.134 321.751 379 320.408 379.203 319.087C379.407 317.766 379.943 316.499 380.775 315.374C381.561 314.313 382.607 313.41 383.839 312.729C385.072 312.047 386.462 311.603 387.914 311.427C389.857 311.18 391.842 311.378 393.666 312.001C395.491 312.624 397.09 313.651 398.301 314.976C398.884 315.667 399.364 316.417 399.729 317.21C400.063 318.023 400.297 318.864 400.425 319.718L400.532 319.688Z" fill="#EBEBEB"/>
<path d="M398.801 319.703C398.672 318.628 398.29 317.586 397.676 316.642C397.062 315.698 396.23 314.871 395.231 314.211C393.225 312.903 390.701 312.321 388.2 312.59C386.948 312.732 385.745 313.099 384.672 313.669C383.598 314.239 382.677 314.997 381.971 315.894C381.207 316.863 380.696 317.962 380.471 319.115C380.246 320.269 380.313 321.45 380.668 322.579C380.968 323.564 381.498 324.486 382.225 325.29C382.952 326.095 383.861 326.765 384.898 327.26C386.944 328.241 389.342 328.535 391.626 328.086C393.829 327.648 395.785 326.566 397.159 325.027C398.519 323.55 399.316 321.75 399.443 319.871C399.443 319.78 399.443 319.703 399.318 319.703C399.297 319.705 399.277 319.711 399.258 319.719C399.24 319.728 399.223 319.74 399.21 319.754C399.196 319.768 399.187 319.785 399.181 319.802C399.175 319.82 399.173 319.838 399.176 319.856C399.037 321.362 398.44 322.809 397.444 324.055C396.448 325.301 395.088 326.3 393.5 326.954C392.363 327.436 391.119 327.704 389.851 327.741C388.583 327.778 387.32 327.583 386.147 327.168C384.962 326.748 383.9 326.108 383.039 325.293C382.178 324.478 381.539 323.509 381.168 322.457C380.798 321.385 380.703 320.258 380.887 319.152C381.072 318.046 381.533 316.987 382.239 316.047C382.912 315.172 383.798 314.432 384.837 313.878C385.875 313.323 387.04 312.967 388.253 312.835C389.857 312.673 391.483 312.835 393.001 313.309C394.529 313.805 395.868 314.652 396.873 315.756C397.371 316.32 397.779 316.937 398.087 317.592C398.387 318.263 398.596 318.961 398.712 319.673C398.712 319.673 398.819 319.718 398.801 319.703Z" fill="#EBEBEB"/>
<path d="M397.087 319.719C396.825 317.994 395.78 316.427 394.178 315.359C392.577 314.332 390.581 313.862 388.592 314.043C387.58 314.144 386.604 314.427 385.728 314.872C384.852 315.317 384.095 315.916 383.506 316.628C382.866 317.414 382.43 318.308 382.227 319.25C382.024 320.192 382.058 321.16 382.328 322.09C382.564 322.908 382.996 323.675 383.594 324.344C384.193 325.013 384.947 325.568 385.808 325.975C387.504 326.78 389.489 327.015 391.376 326.633C393.17 326.261 394.763 325.376 395.892 324.124C396.966 322.902 397.588 321.431 397.676 319.902C397.679 319.886 397.678 319.87 397.673 319.854C397.668 319.838 397.659 319.824 397.647 319.811C397.636 319.798 397.621 319.787 397.605 319.779C397.588 319.771 397.57 319.766 397.551 319.764C397.551 319.764 397.426 319.764 397.409 319.887C397.302 321.099 396.836 322.267 396.055 323.282C395.274 324.296 394.204 325.123 392.947 325.685C392.028 326.096 391.016 326.331 389.98 326.374C388.944 326.416 387.91 326.264 386.95 325.929C385.977 325.586 385.106 325.057 384.405 324.385C383.703 323.712 383.188 322.911 382.899 322.044C382.613 321.173 382.551 320.26 382.718 319.368C382.884 318.475 383.275 317.624 383.863 316.873C384.415 316.182 385.134 315.602 385.972 315.172C386.81 314.741 387.746 314.471 388.717 314.38C389.987 314.281 391.266 314.422 392.465 314.793C393.67 315.175 394.736 315.824 395.553 316.674C395.945 317.124 396.274 317.612 396.534 318.128C396.787 318.665 396.973 319.224 397.087 319.795V319.719Z" fill="#EBEBEB"/>
<path d="M552.267 348.937H531.439L534.027 332.293H549.679L552.267 348.937Z" fill="#C7C7C7"/>
<path d="M561.355 321.871C562.962 312.78 555.666 304.293 545.059 302.915C534.452 301.538 524.55 307.791 522.943 316.883C521.336 325.975 528.632 334.462 539.239 335.839C549.846 337.217 559.748 330.963 561.355 321.871Z" fill="#DBDBDB"/>
<path d="M556.432 322.311C557.661 315.404 552.124 308.95 544.066 307.897C536.008 306.844 528.479 311.59 527.25 318.497C526.022 325.404 531.558 331.857 539.616 332.91C547.675 333.963 555.203 329.218 556.432 322.311Z" fill="white"/>
<path d="M554.195 319.673C554.055 318.166 553.555 316.7 552.726 315.366C551.897 314.031 550.757 312.858 549.376 311.917C547.984 310.991 546.386 310.317 544.68 309.936C542.975 309.554 541.197 309.474 539.453 309.699C537.723 309.932 536.069 310.475 534.6 311.292C533.13 312.109 531.877 313.182 530.923 314.441C529.907 315.784 529.243 317.3 528.975 318.885C528.707 320.469 528.842 322.084 529.37 323.619C530.249 326.277 532.322 328.527 535.134 329.876C537.872 331.21 541.086 331.635 544.165 331.069C547.144 330.523 549.814 329.12 551.732 327.092C553.627 325.088 554.721 322.616 554.856 320.04C554.856 319.933 554.856 319.826 554.731 319.826C554.606 319.826 554.606 319.917 554.588 320.04C554.517 321.08 554.289 322.109 553.91 323.099C553.5 324.073 552.949 324.998 552.268 325.853C550.872 327.557 548.984 328.923 546.789 329.815C545.222 330.454 543.516 330.803 541.782 330.84C540.048 330.877 538.324 330.6 536.723 330.029C535.11 329.445 533.663 328.568 532.483 327.459C531.303 326.35 530.417 325.035 529.887 323.604C529.348 322.134 529.186 320.582 529.411 319.054C529.635 317.525 530.242 316.056 531.19 314.747C532.103 313.504 533.316 312.443 534.748 311.635C536.179 310.828 537.796 310.293 539.489 310.066C541.777 309.754 544.12 309.978 546.272 310.713C548.424 311.448 550.304 312.667 551.714 314.242C552.386 315.058 552.938 315.941 553.356 316.873C553.748 317.822 554.006 318.808 554.124 319.81C554.124 319.81 554.195 319.719 554.195 319.673Z" fill="#EBEBEB"/>
<path d="M552.464 319.688C552.328 318.399 551.888 317.147 551.17 316.008C550.452 314.869 549.471 313.868 548.288 313.064C547.094 312.278 545.73 311.702 544.275 311.371C542.819 311.04 541.302 310.961 539.81 311.137C538.316 311.325 536.885 311.782 535.612 312.478C534.339 313.174 533.251 314.093 532.422 315.175C531.541 316.328 530.958 317.628 530.712 318.99C530.466 320.351 530.562 321.742 530.994 323.069C531.362 324.218 531.994 325.292 532.852 326.23C533.71 327.167 534.777 327.949 535.991 328.53C538.376 329.696 541.183 330.056 543.862 329.539C546.452 329.065 548.773 327.839 550.429 326.067C552.059 324.322 553.002 322.18 553.124 319.948C553.124 319.856 553.124 319.764 552.999 319.764C552.875 319.764 552.875 319.841 552.857 319.948C552.714 321.74 552.015 323.466 550.832 324.948C549.649 326.43 548.025 327.614 546.128 328.377C544.777 328.94 543.302 329.251 541.801 329.288C540.299 329.325 538.805 329.087 537.419 328.591C536.02 328.088 534.767 327.329 533.746 326.367C532.726 325.405 531.963 324.264 531.512 323.023C531.054 321.75 530.923 320.408 531.126 319.088C531.33 317.768 531.863 316.501 532.689 315.374C533.479 314.315 534.525 313.415 535.757 312.734C536.989 312.053 538.377 311.607 539.828 311.427C541.777 311.172 543.769 311.367 545.601 311.991C547.433 312.614 549.038 313.645 550.251 314.976C550.84 315.663 551.32 316.414 551.679 317.21C552.03 318.018 552.263 318.861 552.375 319.718C552.391 319.719 552.408 319.716 552.423 319.711C552.438 319.706 552.452 319.698 552.464 319.688Z" fill="#EBEBEB"/>
<path d="M550.733 319.703C550.596 318.63 550.21 317.591 549.597 316.647C548.984 315.704 548.157 314.876 547.164 314.211C545.155 312.906 542.633 312.325 540.132 312.59C538.886 312.736 537.691 313.105 536.623 313.675C535.556 314.244 534.641 315.001 533.939 315.894C533.176 316.864 532.664 317.962 532.436 319.114C532.209 320.267 532.271 321.448 532.618 322.579C532.927 323.562 533.462 324.483 534.191 325.287C534.921 326.091 535.83 326.762 536.866 327.26C538.906 328.24 541.297 328.534 543.576 328.086C545.783 327.647 547.745 326.566 549.127 325.027C550.491 323.553 551.283 321.75 551.393 319.871C551.393 319.78 551.393 319.703 551.286 319.703C551.265 319.705 551.245 319.711 551.226 319.719C551.207 319.728 551.191 319.74 551.178 319.754C551.164 319.768 551.154 319.785 551.149 319.802C551.143 319.82 551.141 319.838 551.143 319.856C551.001 321.361 550.403 322.807 549.407 324.052C548.412 325.297 547.054 326.298 545.468 326.954C544.331 327.436 543.086 327.704 541.818 327.741C540.551 327.778 539.288 327.583 538.115 327.168C536.93 326.748 535.868 326.108 535.007 325.293C534.146 324.478 533.506 323.509 533.136 322.457C532.766 321.385 532.67 320.258 532.855 319.152C533.04 318.046 533.501 316.987 534.206 316.047C534.875 315.171 535.757 314.43 536.793 313.875C537.828 313.321 538.992 312.966 540.203 312.835C541.813 312.671 543.445 312.834 544.968 313.309C546.496 313.805 547.836 314.652 548.841 315.756C549.338 316.32 549.746 316.937 550.055 317.592C550.338 318.267 550.547 318.964 550.679 319.673C550.693 319.687 550.712 319.698 550.733 319.703Z" fill="#EBEBEB"/>
<path d="M549.002 319.719C548.879 318.864 548.56 318.039 548.064 317.291C547.568 316.543 546.904 315.886 546.111 315.359C544.509 314.333 542.514 313.863 540.525 314.043C539.511 314.138 538.532 314.417 537.655 314.863C536.777 315.309 536.021 315.911 535.438 316.628C534.799 317.414 534.363 318.308 534.16 319.25C533.957 320.192 533.991 321.16 534.26 322.09C534.497 322.908 534.928 323.675 535.527 324.344C536.126 325.013 536.88 325.568 537.741 325.975C539.431 326.779 541.41 327.014 543.291 326.633C545.088 326.257 546.685 325.373 547.824 324.124C548.899 322.902 549.52 321.431 549.609 319.902C549.614 319.887 549.616 319.871 549.613 319.855C549.61 319.84 549.604 319.825 549.593 319.812C549.583 319.798 549.57 319.787 549.554 319.779C549.538 319.771 549.52 319.766 549.502 319.764C549.464 319.764 549.428 319.777 549.401 319.8C549.374 319.823 549.359 319.854 549.359 319.887C549.229 321.105 548.736 322.274 547.926 323.281C547.116 324.289 546.018 325.1 544.737 325.639C543.82 326.048 542.811 326.282 541.779 326.324C540.746 326.366 539.716 326.216 538.758 325.883C537.784 325.54 536.914 325.012 536.213 324.339C535.511 323.666 534.996 322.866 534.707 321.998C534.421 321.128 534.359 320.214 534.525 319.322C534.692 318.429 535.082 317.578 535.67 316.827C536.221 316.136 536.941 315.555 537.779 315.124C538.617 314.694 539.554 314.424 540.525 314.334C541.788 314.235 543.062 314.376 544.255 314.747C545.463 315.124 546.53 315.774 547.342 316.628C547.747 317.074 548.082 317.563 548.342 318.082C548.595 318.619 548.781 319.178 548.895 319.749C548.895 319.749 549.02 319.734 549.002 319.719Z" fill="#EBEBEB"/>
<path d="M596.939 340.462H335.282V383.356H596.939V340.462Z" fill="#DBDBDB"/>
<path d="M389.074 340.462L370.085 383.356H336.282L355.272 340.462H389.074Z" fill="#EBEBEB"/>
<path d="M458.338 340.462L439.348 383.356H405.546L424.535 340.462H458.338Z" fill="#EBEBEB"/>
<path d="M527.585 340.462L508.613 383.356H474.811L493.8 340.462H527.585Z" fill="#EBEBEB"/>
<path d="M596.868 340.462L577.879 383.356H544.076L563.066 340.462H596.868Z" fill="#EBEBEB"/>
<path d="M591.656 423.023H340.583V450.176H591.656V423.023Z" fill="#DBDBDB"/>
<path d="M392.179 423.023L373.975 450.161H341.547L359.769 423.023H392.179Z" fill="#EBEBEB"/>
<path d="M458.66 423.023L440.438 450.161H407.992L426.214 423.023H458.66Z" fill="#EBEBEB"/>
<path d="M525.104 423.023L506.882 450.161H474.454L492.676 423.023H525.104Z" fill="#EBEBEB"/>
<path d="M591.567 423.023L573.345 450.161H540.917L559.139 423.023H591.567Z" fill="#EBEBEB"/>
<path d="M938.921 163.428H736.928C736.928 163.428 756.952 116.541 787.774 116.541C818.596 116.541 828.251 148.895 828.251 148.895C828.251 148.895 849.043 131.318 866.141 131.318C883.238 131.318 898.069 154.555 898.069 154.555C898.069 154.555 922.217 142.057 938.921 163.428Z" fill="#EBEBEB"/>
<path d="M313.474 26.1894H219.08C219.08 26.1894 240.158 0 256.791 0C273.425 0 278.315 17.4545 278.315 17.4545C278.315 17.4545 290.04 9.3162 300.909 10.7695C311.778 12.2227 313.474 26.1894 313.474 26.1894Z" fill="#EBEBEB"/>
<path d="M822.67 214.793H728.276C728.276 214.793 749.372 188.603 765.987 188.603C782.603 188.603 787.511 206.058 787.511 206.058C787.511 206.058 799.236 197.904 810.105 199.373C820.974 200.841 822.67 214.793 822.67 214.793Z" fill="#EBEBEB"/>
<path d="M183.879 91.8311H0C0 91.8311 25.1823 43.6439 52.1136 40.6303C79.0449 37.6167 91.9305 76.4265 91.9305 76.4265C91.9305 76.4265 109.314 62.6587 122.967 62.6587C136.62 62.6587 147.167 80.7251 147.167 80.7251C147.167 80.7251 174.545 68.3953 183.879 91.8311Z" fill="#EBEBEB"/>
<path d="M911.334 600H853.027C810.658 600 784.744 574.897 780.086 529.325C777.784 506.853 776.374 479.654 774.892 450.864C770.324 362.399 764.059 241.288 723.885 241.288H677.715V232.11H723.885C774.286 232.11 780.032 343.124 785.583 450.482C787.064 479.18 788.474 506.287 790.759 528.499C793.668 556.922 806.821 590.806 853.027 590.806H911.334V600Z" fill="#3140B9"/>
<path opacity="0.2" d="M711.624 232.079L709.34 241.257H677.715V232.079H711.624Z" fill="black"/>
<path d="M590.692 181.735H572.024V293.544H590.692V181.735Z" fill="#3140B9"/>
<path d="M572.043 189.995H501.064V284.136H572.043V189.995Z" fill="#3140B9"/>
<path opacity="0.2" d="M572.025 190.011V284.152H554.392L546.485 190.011H572.025Z" fill="black"/>
<path d="M446.594 206.899H501.046V220.973H446.594C444.729 220.973 442.941 220.338 441.622 219.208C440.303 218.077 439.563 216.544 439.563 214.946V212.942C439.56 212.149 439.74 211.364 440.093 210.63C440.445 209.897 440.963 209.231 441.616 208.67C442.269 208.109 443.045 207.663 443.899 207.359C444.754 207.056 445.669 206.899 446.594 206.899Z" fill="#DBDBDB"/>
<path d="M501.047 206.899H481.933V220.958H501.047V206.899Z" fill="#A6A6A6"/>
<path d="M446.594 253.174H501.046V267.248H446.594C444.729 267.248 442.941 266.613 441.622 265.483C440.303 264.352 439.563 262.819 439.563 261.221V259.217C439.56 258.424 439.74 257.639 440.093 256.906C440.445 256.173 440.963 255.506 441.616 254.945C442.269 254.384 443.045 253.938 443.899 253.634C444.754 253.331 445.669 253.174 446.594 253.174Z" fill="#DBDBDB"/>
<path d="M501.047 253.174H481.933V267.233H501.047V253.174Z" fill="#A6A6A6"/>
<path d="M701.006 228.086H645.555V246.856H701.006V228.086Z" fill="#3140B9"/>
<path d="M701.006 228.102H645.555V246.872H701.006V228.102Z" fill="#3140B9"/>
<path opacity="0.2" d="M665.026 228.102L663.205 246.872H645.555V228.102H665.026Z" fill="black"/>
<path d="M590.692 193.544H634.579C637.49 193.544 640.281 194.536 642.34 196.3C644.398 198.064 645.554 200.457 645.554 202.952V271.195C645.554 273.69 644.398 276.083 642.34 277.847C640.281 279.611 637.49 280.603 634.579 280.603H590.692V193.544Z" fill="#3140B9"/>
<path opacity="0.2" d="M614.036 193.544L606.13 280.603H590.71V193.544H614.036Z" fill="black"/>
<g opacity="0.2">
<path d="M609.949 211.137H606.451V262.995H609.949V211.137Z" fill="black"/>
<path d="M619.872 211.137H616.374V262.995H619.872V211.137Z" fill="black"/>
<path d="M629.795 211.137H626.297V262.995H629.795V211.137Z" fill="black"/>
</g>
<path d="M369.512 235.689C374.064 235.582 394.891 233.532 400.549 231.849C406.206 230.167 421.965 224.323 420.966 220.483C419.966 216.644 415.112 218.036 415.112 218.036C415.112 218.036 421.341 214.655 419.859 210.877C418.378 207.098 410.936 209.484 410.936 209.484C410.936 209.484 417.039 205.614 415.237 201.928C413.434 198.241 406.492 201.713 406.492 201.713C406.492 201.713 412.274 198.394 409.312 195.885C405.742 192.825 395.891 200.031 389.501 201.484C388.038 201.82 359.482 206.394 359.482 206.394L369.512 235.689Z" fill="#AD6359"/>
<path d="M407.224 201.423C399.96 206.654 395.731 207.878 386.486 208.964C386.454 208.974 386.427 208.991 386.408 209.015C386.388 209.038 386.378 209.066 386.378 209.094C386.378 209.123 386.388 209.151 386.408 209.174C386.427 209.197 386.454 209.215 386.486 209.224C395.641 208.857 401.21 207.985 407.528 201.713C407.795 201.407 407.51 201.178 407.224 201.423Z" fill="#263238"/>
<path d="M411.561 209.056C403.476 214.012 398.907 215.282 389.377 217.072C389.252 217.072 389.288 217.301 389.377 217.286C398.943 216.231 404.475 215.252 411.811 209.469C412.114 209.178 411.936 208.827 411.561 209.056Z" fill="#263238"/>
<path d="M414.613 218.112C406.385 222.35 401.442 224.017 391.876 224.706C391.828 224.706 391.783 224.722 391.75 224.75C391.716 224.779 391.697 224.818 391.697 224.858C391.697 224.899 391.716 224.938 391.75 224.967C391.783 224.995 391.828 225.011 391.876 225.011C400.216 225.442 408.42 223.047 414.72 218.342C415.202 218.021 415.131 217.852 414.613 218.112Z" fill="#263238"/>
<path d="M352.879 203.182C357.686 200.519 362.715 198.162 367.924 196.13C372.957 194.6 394.195 194.6 394.427 198.547C394.748 203.625 382.487 205.66 376.33 205.997C376.33 205.997 377.097 217.73 368.656 220.835C360.214 223.941 352.879 203.182 352.879 203.182Z" fill="#AD6359"/>
<path d="M394 199.969C390.43 204.773 382.274 204.757 376.331 205.461C376.241 205.465 376.154 205.488 376.077 205.529C376.001 205.569 375.937 205.626 375.893 205.693C375.848 205.76 375.824 205.836 375.823 205.913C375.821 205.99 375.843 206.066 375.885 206.134C375.885 211.075 374.1 218.02 369.014 220.942C368.853 221.034 369.014 221.233 369.139 221.156C375.046 218.648 377.438 211.978 377.098 206.517C383.202 205.889 391.376 205.599 394.053 199.985C394.071 199.954 394.018 199.939 394 199.969Z" fill="#263238"/>
<path d="M326.912 196.038C325.739 198.99 324.767 201.999 324.003 205.048C323.128 208.108 322.218 211.167 321.486 214.227C319.897 220.227 318.706 226.3 317.917 232.416C317.917 232.452 317.934 232.487 317.964 232.513C317.994 232.539 318.035 232.553 318.078 232.553C318.12 232.553 318.161 232.539 318.191 232.513C318.221 232.487 318.238 232.452 318.238 232.416C320.166 226.419 321.593 220.285 323.057 214.196C323.789 211.137 324.449 208.169 325.181 205.171C325.912 202.172 326.787 199.052 327.18 196.084C327.187 196.053 327.179 196.022 327.159 195.996C327.139 195.97 327.108 195.952 327.073 195.946C327.037 195.94 327 195.946 326.97 195.964C326.94 195.981 326.919 196.008 326.912 196.038Z" fill="#263238"/>
<path d="M78.248 600H19.9414V590.821H78.248C124.436 590.821 137.608 556.937 140.517 528.515C142.801 506.257 144.193 479.149 145.674 450.497C151.225 343.139 156.972 232.125 207.372 232.125H253.56V241.303H207.336C167.18 241.303 160.934 362.445 156.347 450.88C154.848 479.685 153.438 506.884 151.153 529.356C146.513 574.897 120.617 600 78.248 600Z" fill="#3140B9"/>
<path opacity="0.2" d="M253.56 232.079V241.257H216.724L214.439 232.079H253.56Z" fill="black"/>
<path d="M413.792 295.961H433.46V178.201H413.792V295.961Z" fill="#3140B9"/>
<path d="M413.792 183.785H339.048V289.154H413.792V183.785Z" fill="#3140B9"/>
<path opacity="0.2" d="M413.792 183.785V289.154H395.231L386.896 183.785H413.792Z" fill="black"/>
<path d="M225.825 246.046H281.276V227.275H225.825V246.046Z" fill="#3140B9"/>
<path d="M281.277 227.291H225.826V246.061H281.277V227.291Z" fill="#3140B9"/>
<path opacity="0.2" d="M261.806 246.046L263.626 227.291H281.277V246.046H261.806Z" fill="black"/>
<path d="M339.048 282.913H292.253C289.342 282.913 286.55 281.921 284.491 280.157C282.433 278.393 281.277 276 281.277 273.505V200.627C281.277 198.132 282.433 195.739 284.491 193.975C286.55 192.21 289.342 191.219 292.253 191.219H339.048V282.913Z" fill="#3140B9"/>
<path opacity="0.2" d="M314.455 282.913L322.79 191.234H339.048V282.913H314.455Z" fill="black"/>
<g opacity="0.2">
<path d="M318.756 264.372H322.45V209.76H318.756V264.372Z" fill="black"/>
<path d="M308.315 264.372H312.01V209.76H308.315V264.372Z" fill="black"/>
<path d="M297.857 264.372H301.552V209.76H297.857V264.372Z" fill="black"/>
</g>
<path d="M466.405 158.498C466.168 158.498 465.941 158.417 465.774 158.274C465.607 158.13 465.513 157.936 465.513 157.733V136.209C465.513 136.006 465.607 135.812 465.774 135.668C465.941 135.525 466.168 135.444 466.405 135.444C466.642 135.444 466.869 135.525 467.036 135.668C467.203 135.812 467.297 136.006 467.297 136.209V157.733C467.297 157.936 467.203 158.13 467.036 158.274C466.869 158.417 466.642 158.498 466.405 158.498Z" fill="#263238"/>
<path d="M420.966 168.808C420.807 168.809 420.651 168.774 420.514 168.706C420.376 168.639 420.261 168.543 420.18 168.426L407.687 149.778C407.614 149.692 407.562 149.593 407.536 149.488C407.51 149.384 407.51 149.275 407.536 149.171C407.562 149.066 407.613 148.967 407.686 148.88C407.759 148.793 407.852 148.721 407.96 148.667C408.068 148.613 408.188 148.58 408.312 148.568C408.437 148.556 408.562 148.567 408.681 148.6C408.8 148.633 408.91 148.686 409.003 148.757C409.096 148.829 409.171 148.916 409.222 149.013L421.715 167.661C421.775 167.747 421.815 167.842 421.832 167.942C421.848 168.041 421.841 168.142 421.811 168.239C421.781 168.336 421.729 168.427 421.657 168.507C421.586 168.586 421.496 168.652 421.394 168.701C421.265 168.769 421.117 168.806 420.966 168.808Z" fill="#263238"/>
<path d="M407.902 322.273C407.744 322.274 407.589 322.237 407.455 322.166C407.355 322.111 407.27 322.039 407.204 321.954C407.137 321.869 407.092 321.774 407.07 321.674C407.049 321.573 407.051 321.47 407.077 321.371C407.104 321.271 407.153 321.178 407.223 321.095L419.716 302.463C419.775 302.376 419.853 302.299 419.946 302.237C420.039 302.176 420.146 302.131 420.259 302.104C420.373 302.078 420.491 302.071 420.608 302.084C420.724 302.097 420.837 302.13 420.939 302.18C421.041 302.23 421.13 302.297 421.202 302.377C421.274 302.457 421.326 302.548 421.357 302.645C421.388 302.743 421.396 302.844 421.381 302.944C421.366 303.044 421.328 303.14 421.269 303.228L408.776 321.86C408.695 321.996 408.568 322.108 408.412 322.181C408.257 322.255 408.079 322.287 407.902 322.273Z" fill="#263238"/>
<path d="M465.833 335.704C465.596 335.704 465.369 335.624 465.202 335.48C465.034 335.337 464.94 335.142 464.94 334.94V313.447C464.94 313.244 465.034 313.049 465.202 312.906C465.369 312.762 465.596 312.682 465.833 312.682C466.068 312.686 466.292 312.767 466.459 312.91C466.625 313.053 466.721 313.245 466.725 313.447V334.97C466.716 335.168 466.618 335.354 466.451 335.491C466.285 335.628 466.063 335.705 465.833 335.704Z" fill="#263238"/>
<path d="M523.837 322.518C523.681 322.517 523.528 322.481 523.393 322.414C523.259 322.347 523.147 322.251 523.069 322.136L510.576 303.503C510.518 303.416 510.48 303.319 510.464 303.219C510.449 303.119 510.457 303.018 510.488 302.921C510.519 302.823 510.571 302.732 510.643 302.652C510.715 302.572 510.804 302.505 510.906 302.455C511.008 302.405 511.121 302.373 511.237 302.36C511.354 302.347 511.472 302.353 511.586 302.38C511.699 302.406 511.806 302.451 511.899 302.513C511.992 302.574 512.07 302.651 512.129 302.738L524.622 321.371C524.682 321.457 524.722 321.552 524.738 321.651C524.755 321.751 524.748 321.852 524.718 321.949C524.688 322.046 524.636 322.137 524.564 322.216C524.492 322.296 524.403 322.362 524.301 322.411C524.161 322.485 524 322.522 523.837 322.518Z" fill="#263238"/>
<path d="M511.772 169.053C511.614 169.054 511.459 169.017 511.325 168.946C511.223 168.897 511.134 168.831 511.062 168.751C510.99 168.672 510.938 168.581 510.908 168.484C510.878 168.387 510.871 168.286 510.888 168.187C510.904 168.087 510.944 167.992 511.004 167.906L523.497 149.258C523.627 149.105 523.819 148.999 524.035 148.959C524.251 148.92 524.476 148.951 524.667 149.047C524.858 149.142 525.001 149.294 525.069 149.475C525.136 149.655 525.123 149.85 525.032 150.023L512.539 168.671C512.459 168.784 512.346 168.879 512.212 168.946C512.078 169.012 511.927 169.049 511.772 169.053Z" fill="#263238"/>
</svg>
