<?xml version="1.0" encoding="utf-8"?>
<!-- Generator: Adobe Illustrator 16.0.0, SVG Export Plug-In . SVG Version: 6.00 Build 0)  -->
<!DOCTYPE svg PUBLIC "-//W3C//DTD SVG 1.1//EN" "http://www.w3.org/Graphics/SVG/1.1/DTD/svg11.dtd">
<svg version="1.1" id="Capa_1" xmlns="http://www.w3.org/2000/svg" xmlns:xlink="http://www.w3.org/1999/xlink" x="0px" y="0px"
	 width="268.5px" height="75px" viewBox="0 0 268.5 75" enable-background="new 0 0 268.5 75" xml:space="preserve">
<g>
	<path fill="#E39B30" d="M4.018,11.803L4.018,11.803v0.002c-0.289,0.497-0.458,1.067-0.478,1.678l0.004,59.528l15.967-9.222
		l0.042-0.021l0.047-0.026c0.518-0.322,0.93-0.755,1.217-1.254c0.292-0.496,0.457-1.069,0.475-1.683V42.27V21.776L4.018,11.803z"/>
	<path fill="#A32531" d="M56.313,41.996L56.313,41.996c0.286-0.499,0.457-1.075,0.472-1.685l0.003-16.578
		c-0.019-0.61-0.189-1.185-0.476-1.681L39.04,32.024L56.313,41.996z"/>
	<path fill="#D35B2B" d="M21.293,1.83H21.29c-0.576,0-1.152,0.139-1.688,0.428l-14.36,8.294c-0.528,0.321-0.937,0.75-1.224,1.25
		l17.275,9.973V1.83z"/>
	<path fill="#CC2229" d="M56.313,22.05L56.313,22.05c-0.286-0.5-0.697-0.931-1.222-1.253L39.04,11.531l-16.054-9.27
		c-0.538-0.292-1.116-0.433-1.693-0.431v19.946L39.04,32.024l17.273-9.972V22.05z"/>
	<g>
		<defs>
			<path id="SVGID_1_" d="M21.293,42.27l15.969,9.224v-0.005l0.019,0.014l0.072,0.044c0.54,0.284,1.116,0.426,1.688,0.42
				c0.571,0.006,1.152-0.136,1.685-0.416l14.367-8.302c0.523-0.321,0.937-0.754,1.223-1.252L39.04,32.025L21.293,42.27z"/>
		</defs>
		<clipPath id="SVGID_2_">
			<use xlink:href="#SVGID_1_"  overflow="visible"/>
		</clipPath>
		
			<linearGradient id="SVGID_3_" gradientUnits="userSpaceOnUse" x1="-167.354" y1="435.6523" x2="-166.7006" y2="435.6523" gradientTransform="matrix(40.3733 -23.3102 -23.3102 -40.3733 16937.2949 13737.2734)">
			<stop  offset="0" style="stop-color:#BFC0C1"/>
			<stop  offset="1" style="stop-color:#808183"/>
		</linearGradient>
		<polygon clip-path="url(#SVGID_2_)" fill="url(#SVGID_3_)" points="12.654,37.012 47.558,16.86 64.952,46.985 30.048,67.137 		"/>
	</g>
	<g>
		<g>
			<defs>
				<rect id="SVGID_4_" x="84.708" y="17.042" width="180.839" height="30.707"/>
			</defs>
			<clipPath id="SVGID_5_">
				<use xlink:href="#SVGID_4_"  overflow="visible"/>
			</clipPath>
			<path clip-path="url(#SVGID_5_)" fill="#808080" d="M84.708,17.457H98.8c1.438,0,2.804,0.175,4.093,0.512
				c1.285,0.351,2.42,0.909,3.404,1.669c0.982,0.757,1.768,1.762,2.354,2.994c0.578,1.227,0.869,2.691,0.869,4.385
				c0,3.542-0.939,6.128-2.807,7.77c-1.87,1.629-4.509,2.448-7.912,2.448h-6.356v9.89h-7.736V17.457z M92.444,31.25h5.187
				c1.275,0,2.288-0.288,3.039-0.87c0.746-0.591,1.119-1.519,1.119-2.827c0-1.326-0.382-2.309-1.14-2.951
				c-0.766-0.638-1.768-0.957-3.018-0.957h-5.187V31.25z"/>
			<path clip-path="url(#SVGID_5_)" fill="#808080" d="M119.369,22.854h-7.066v-5.398h7.066V22.854z M112.303,25.558h7.066v21.566
				h-7.066V25.558z"/>
			<path clip-path="url(#SVGID_5_)" fill="#808080" d="M124.605,25.558h6.854v3.78h0.081c0.524-1.359,1.36-2.389,2.489-3.111
				c1.14-0.723,2.47-1.083,3.993-1.083c0.636,0,1.185,0.053,1.663,0.169v6.437c-1.027-0.277-1.923-0.421-2.704-0.421
				c-1.656,0-2.961,0.5-3.902,1.482c-0.944,0.983-1.412,2.192-1.412,3.632v10.682h-7.061V25.558z"/>
			<path clip-path="url(#SVGID_5_)" fill="#808080" d="M141.765,32.212c0.056-1.361,0.377-2.518,0.973-3.474
				c0.595-0.956,1.396-1.722,2.388-2.311c0.914-0.525,1.961-0.907,3.117-1.142c1.165-0.232,2.418-0.356,3.743-0.356
				c1.407,0,2.697,0.103,3.866,0.294c1.158,0.194,2.208,0.555,3.158,1.083c0.941,0.524,1.678,1.269,2.222,2.22
				c0.539,0.955,0.811,2.171,0.811,3.636v9.436c0,1.249,0.044,2.29,0.145,3.14c0.102,0.843,0.318,1.638,0.678,2.387h-7.098
				c-0.164-0.472-0.308-1.152-0.414-2.038c-0.86,0.919-1.923,1.589-3.181,2.018c-1.263,0.425-2.57,0.645-3.93,0.645
				c-2.159,0-3.925-0.555-5.299-1.661c-1.363-1.111-2.054-2.726-2.054-4.865c0-1.354,0.28-2.471,0.831-3.346
				c0.553-0.871,1.281-1.545,2.184-2.013c0.904-0.471,1.854-0.816,2.867-1.035c1.009-0.223,2.277-0.435,3.802-0.631
				c1.327-0.187,2.283-0.34,2.867-0.452c0.663-0.142,1.139-0.35,1.435-0.627c0.292-0.274,0.431-0.731,0.431-1.368
				c0-0.75-0.346-1.313-1.052-1.685c-0.714-0.371-1.493-0.557-2.354-0.557c-2.021,0-3.2,0.896-3.534,2.704H141.765z M159.255,17.042
				l-6.52,6.186h-4.986l4.029-6.186H159.255z M148.784,42.78c0.552,0.405,1.256,0.607,2.118,0.607c1.583,0,2.692-0.479,3.352-1.439
				c0.646-0.957,0.972-2.597,0.972-4.927c-0.309,0.203-0.675,0.356-1.101,0.462c-0.43,0.112-0.965,0.223-1.597,0.334
				c-0.773,0.166-1.334,0.29-1.663,0.372c-0.886,0.223-1.598,0.541-2.123,0.954c-0.528,0.416-0.793,1.017-0.793,1.789
				C147.949,41.763,148.228,42.379,148.784,42.78"/>
			<path clip-path="url(#SVGID_5_)" fill="#808080" d="M166.693,25.558h6.859v2.953h0.081c0.663-1.11,1.54-1.981,2.616-2.619
				c1.077-0.632,2.269-0.961,3.575-0.961c1.471,0,2.739,0.271,3.821,0.813c1.08,0.541,1.901,1.438,2.454,2.681
				c1.741-2.325,3.989-3.495,6.726-3.495c1.636,0,2.967,0.277,3.993,0.833c1.025,0.559,1.789,1.275,2.306,2.164
				c0.509,0.886,0.865,1.847,1.041,2.887c0.18,1.042,0.265,2.184,0.265,3.431v12.88h-7.063V34.447c0-1.16-0.259-2.067-0.785-2.721
				c-0.529-0.654-1.249-0.97-2.162-0.97c-1.391,0-2.281,0.458-2.701,1.39c-0.409,0.929-0.628,2.399-0.628,4.423v10.555h-7.06V34.859
				c0-1.321-0.218-2.341-0.645-3.046c-0.427-0.707-1.098-1.057-2.017-1.057c-1.3,0-2.231,0.43-2.783,1.307
				c-0.557,0.869-0.83,2.384-0.83,4.549v10.511h-7.064V25.558z"/>
			<path clip-path="url(#SVGID_5_)" fill="#808080" d="M212.484,22.854h-7.063v-5.398h7.063V22.854z M205.421,25.558h7.063v21.566
				h-7.063V25.558z"/>
			<path clip-path="url(#SVGID_5_)" fill="#808080" d="M238.828,47.124h-6.729V44.63h-0.086c-1.384,2.077-3.361,3.118-5.94,3.118
				c-1.631,0-3.071-0.33-4.303-0.978c-1.23-0.648-2.234-1.529-3.009-2.641c-0.78-1.109-1.356-2.374-1.748-3.796
				c-0.385-1.43-0.583-2.923-0.583-4.471c0-1.416,0.198-2.775,0.583-4.09c0.392-1.321,0.961-2.495,1.724-3.513
				c0.761-1.025,1.725-1.838,2.87-2.431c1.152-0.597,2.457-0.899,3.927-0.899c2.628,0,4.68,0.983,6.151,2.953h0.078V17.457h7.065
				V47.124z M225.819,30.835c-0.553,0.329-1,0.775-1.346,1.327c-0.346,0.559-0.602,1.174-0.75,1.852
				c-0.153,0.683-0.228,1.378-0.228,2.094c0,0.78,0.074,1.539,0.228,2.273c0.148,0.73,0.404,1.396,0.75,1.992
				c0.346,0.594,0.793,1.07,1.346,1.432c0.554,0.356,1.225,0.541,1.994,0.541c0.802,0,1.49-0.175,2.06-0.52
				c0.568-0.346,1.006-0.812,1.311-1.391c0.302-0.579,0.515-1.223,0.639-1.91c0.132-0.698,0.19-1.43,0.19-2.204
				c0-1.717-0.335-3.145-1.016-4.283c-0.678-1.133-1.74-1.701-3.184-1.701C227.044,30.337,226.373,30.501,225.819,30.835"/>
			<path clip-path="url(#SVGID_5_)" fill="#808080" d="M249.677,38.067c0.053,1.492,0.501,2.687,1.352,3.566
				c0.84,0.888,1.994,1.333,3.465,1.333c0.888,0,1.698-0.205,2.431-0.622c0.731-0.413,1.27-0.994,1.602-1.746h6.603
				c-0.606,2.353-1.902,4.138-3.883,5.336c-1.979,1.207-4.262,1.814-6.831,1.814c-3.553,0-6.403-1.017-8.564-3.055
				c-2.156-2.039-3.24-4.838-3.24-8.417c0-1.636,0.302-3.144,0.915-4.529c0.614-1.38,1.451-2.59,2.511-3.611
				c1.066-1.03,2.312-1.816,3.722-2.375c1.413-0.555,2.909-0.833,4.487-0.833c1.797,0,3.411,0.314,4.836,0.92
				c1.434,0.603,2.623,1.476,3.583,2.595c0.953,1.12,1.666,2.427,2.156,3.909c0.486,1.481,0.728,3.088,0.728,4.84
				c0,0.108-0.015,0.244-0.042,0.41v0.462H249.677z M258.436,34.122c-0.047-1.247-0.471-2.293-1.26-3.149
				c-0.794-0.838-1.771-1.251-2.932-1.251c-1.222,0-2.228,0.392-3.032,1.195c-0.807,0.805-1.316,1.874-1.535,3.205H258.436z"/>
		</g>
	</g>
	<path fill="#808080" d="M85.106,68.756l0.536-0.604c1.2,1.111,2.311,1.623,3.918,1.623c1.642,0,2.763-0.922,2.763-2.17v-0.029
		c0-1.158-0.611-1.834-3.09-2.33c-2.624-0.529-3.685-1.419-3.685-3.078v-0.032c0-1.625,1.486-2.871,3.509-2.871
		c1.599,0,2.645,0.436,3.754,1.328l-0.521,0.637c-1.026-0.894-2.061-1.231-3.261-1.231c-1.609,0-2.669,0.923-2.669,2.062v0.029
		c0,1.156,0.589,1.86,3.18,2.389c2.534,0.52,3.593,1.423,3.593,3.018v0.031c0,1.763-1.512,2.979-3.619,2.979
		C87.765,70.504,86.417,69.926,85.106,68.756"/>
	<polygon fill="#808080" points="95.184,59.423 102.963,59.423 102.963,60.172 95.997,60.172 95.997,64.468 102.257,64.468 
		102.257,65.212 95.997,65.212 95.997,69.601 103.042,69.601 103.042,70.355 95.184,70.355 	"/>
	<path fill="#808080" d="M104.54,64.917v-0.032c0-2.95,2.14-5.654,5.404-5.654c1.778,0,2.913,0.531,4.004,1.434l-0.536,0.615
		c-0.861-0.747-1.854-1.315-3.515-1.315c-2.654,0-4.513,2.25-4.513,4.895v0.026c0,2.824,1.767,4.938,4.682,4.938
		c1.397,0,2.686-0.574,3.483-1.249v-3.143h-3.652v-0.753h4.438v4.221c-0.981,0.876-2.511,1.643-4.295,1.643
		C106.583,70.541,104.54,67.991,104.54,64.917"/>
	<path fill="#808080" d="M116.477,65.811v-6.388h0.811v6.306c0,2.577,1.387,4.062,3.701,4.062c2.213,0,3.636-1.347,3.636-3.979
		v-6.388h0.814v6.291c0,3.138-1.828,4.813-4.481,4.813C118.335,70.526,116.477,68.864,116.477,65.811"/>
	<path fill="#808080" d="M127.898,59.423h4.586c1.344,0,2.427,0.418,3.081,1.069c0.513,0.517,0.828,1.25,0.828,2.031v0.037
		c0,1.825-1.359,2.87-3.207,3.122l3.611,4.673h-1.024l-3.49-4.534h-3.58v4.534h-0.805V59.423z M132.394,65.088
		c1.828,0,3.187-0.919,3.187-2.496v-0.031c0-1.472-1.157-2.389-3.145-2.389h-3.733v4.916H132.394z"/>
	<path fill="#808080" d="M138.08,64.917v-0.032c0-2.985,2.205-5.654,5.519-5.654c3.306,0,5.479,2.635,5.479,5.628v0.026
		c0,2.984-2.2,5.656-5.521,5.656C140.252,70.541,138.08,67.899,138.08,64.917 M148.231,64.917v-0.032
		c0-2.702-1.967-4.921-4.674-4.921c-2.7,0-4.638,2.188-4.638,4.895v0.026c0,2.704,1.975,4.923,4.679,4.923
		C146.295,69.808,148.231,67.614,148.231,64.917"/>
	<path fill="#808080" d="M150.436,68.756l0.531-0.604c1.206,1.111,2.32,1.623,3.923,1.623c1.642,0,2.763-0.922,2.763-2.17v-0.029
		c0-1.158-0.609-1.834-3.091-2.33c-2.629-0.529-3.685-1.419-3.685-3.078v-0.032c0-1.625,1.481-2.871,3.514-2.871
		c1.589,0,2.64,0.436,3.75,1.328l-0.521,0.637c-1.025-0.894-2.061-1.231-3.265-1.231c-1.607,0-2.672,0.923-2.672,2.062v0.029
		c0,1.156,0.602,1.86,3.192,2.389c2.528,0.52,3.588,1.423,3.588,3.018v0.031c0,1.763-1.517,2.979-3.619,2.979
		C153.092,70.504,151.747,69.926,150.436,68.756"/>
</g>
</svg>
